# 3ds Max Wavefront OBJ Exporter v0.97b - (c)2007 guruware
# File Created: 10.03.2017 23:51:01

#
# object pCube1
#

v  -8.0000 -0.7500 3.2903
v  0.0000 -0.7500 2.4036
v  -8.0000 0.7500 3.2903
v  0.0000 0.7500 2.4036
v  -8.0000 0.7500 -3.2903
v  0.0000 0.7500 -2.4036
v  -8.0000 -0.7500 -3.2903
v  0.0000 -0.7500 -2.4036
# 8 vertices

vn 0.1814 0.0000 0.9834
vn 0.0000 1.0000 -0.0000
vn 0.1814 0.0000 -0.9834
vn 0.0000 -1.0000 -0.0000
vn 1.0000 0.0000 -0.0000
vn -1.0000 0.0000 -0.0000
# 6 vertex normals

vt 0.3750 0.0000 0.0000
vt 0.6250 0.0000 0.0000
vt 0.3750 0.2500 0.0000
vt 0.6250 0.2500 0.0000
vt 0.3750 0.5000 0.0000
vt 0.6250 0.5000 0.0000
vt 0.3750 0.7500 0.0000
vt 0.6250 0.7500 0.0000
vt 0.3750 1.0000 0.0000
vt 0.6250 1.0000 0.0000
vt 0.8750 0.0000 0.0000
vt 0.8750 0.2500 0.0000
vt 0.1250 0.0000 0.0000
vt 0.1250 0.2500 0.0000
# 14 texture coords

g pCube1
s off
f 1/1/1 2/2/1 3/3/1 
f 3/3/1 2/2/1 4/4/1 
f 3/3/2 4/4/2 5/5/2 
f 5/5/2 4/4/2 6/6/2 
f 5/5/3 6/6/3 7/7/3 
f 7/7/3 6/6/3 8/8/3 
f 7/7/4 8/8/4 1/9/4 
f 1/9/4 8/8/4 2/10/4 
f 2/2/5 8/11/5 4/4/5 
f 4/4/5 8/11/5 6/12/5 
f 7/13/6 1/1/6 5/14/6 
f 5/14/6 1/1/6 3/3/6 
# 12 faces

