# 3ds Max Wavefront OBJ Exporter v0.97b - (c)2007 guruware
# File Created: 03.02.2017 21:45:03

mtllib right_thumb_0.mtl

#
# object R_Finger0
#

v  -0.5890 1.0078 0.1370
v  -0.5864 1.0070 0.1359
v  -0.5850 1.0088 0.1378
v  -0.5876 1.0096 0.1389
v  -0.5911 1.0112 0.1354
v  -0.5903 1.0093 0.1331
v  -0.5897 1.0130 0.1373
v  -0.5867 1.0138 0.1378
v  -0.5841 1.0129 0.1366
v  -0.5832 1.0109 0.1344
v  -0.5847 1.0091 0.1325
v  -0.5877 1.0084 0.1320
v  -0.5919 1.0205 0.1271
v  -0.5918 1.0188 0.1252
v  -0.5890 1.0218 0.1283
v  -0.5868 1.0228 0.1292
v  -0.5854 1.0223 0.1286
v  -0.5854 1.0206 0.1267
v  -0.5854 1.0184 0.1242
v  -0.5875 1.0174 0.1232
v  -0.5930 1.0268 0.1214
v  -0.5920 1.0246 0.1188
v  -0.5913 1.0289 0.1236
v  -0.5879 1.0297 0.1242
v  -0.5848 1.0287 0.1228
v  -0.5838 1.0265 0.1203
v  -0.5855 1.0244 0.1181
v  -0.5889 1.0236 0.1174
v  -0.5950 1.0293 0.1194
v  -0.5937 1.0262 0.1158
v  -0.5927 1.0323 0.1225
v  -0.5879 1.0335 0.1234
v  -0.5835 1.0321 0.1214
v  -0.5821 1.0289 0.1178
v  -0.5845 1.0259 0.1147
v  -0.5893 1.0247 0.1138
v  -0.5933 1.0317 0.1169
v  -0.5924 1.0295 0.1144
v  -0.5917 1.0339 0.1192
v  -0.5883 1.0347 0.1198
v  -0.5852 1.0337 0.1184
v  -0.5842 1.0314 0.1158
v  -0.5859 1.0293 0.1136
v  -0.5893 1.0285 0.1130
v  -0.5889 1.0326 0.1155
# 45 vertices

vn 0.0574 -0.7412 0.6688
vn -0.8518 -0.5107 0.1166
vn -0.7095 -0.1549 0.6875
vn -0.2317 0.2742 0.9333
vn 0.4367 0.1182 0.8918
vn 0.8986 -0.0936 0.4286
vn 0.7708 -0.6366 0.0266
vn 0.2785 -0.8785 -0.3881
vn -0.3754 -0.9097 -0.1777
vn -0.9679 -0.2115 -0.1356
vn -0.9585 -0.2284 -0.1708
vn -0.9915 -0.1225 0.0429
vn -0.9913 -0.1003 0.0856
vn -0.8304 0.4225 0.3631
vn -0.8747 0.3862 0.2929
vn -0.5983 0.5284 0.6024
vn -0.5319 0.5442 0.6488
vn -0.3191 0.6597 0.6805
vn -0.2815 0.6604 0.6961
vn -0.4952 0.6400 0.5875
vn -0.5350 0.6313 0.5615
vn 0.4802 0.6078 0.6324
vn 0.9585 0.2733 0.0807
vn 0.9479 0.3013 0.1032
vn 0.9921 0.1190 -0.0401
vn 0.9943 0.0829 -0.0676
vn 0.9125 -0.2138 -0.3488
vn 0.8753 -0.2848 -0.3908
vn 0.9841 0.0726 -0.1623
vn 0.9837 0.1372 -0.1166
vn 0.3182 -0.6601 -0.6805
vn 0.2823 -0.6748 -0.6818
vn 0.4948 -0.5683 -0.6574
vn 0.5334 -0.5435 -0.6482
vn -0.4802 -0.6078 -0.6324
vn -0.9910 -0.1328 0.0194
vn -0.9909 -0.1023 0.0874
vn -0.9721 -0.1964 -0.1284
vn -0.9592 -0.2179 -0.1803
vn -0.6085 0.3230 0.7248
vn -0.5007 0.3416 0.7953
vn -0.7971 0.2676 0.5414
vn -0.8692 0.2330 0.4361
vn -0.4576 0.4469 0.7687
vn -0.5193 0.4388 0.7333
vn -0.3114 0.4566 0.8334
vn -0.2605 0.4573 0.8503
vn 0.4830 0.5552 0.6771
vn 0.9834 -0.0720 0.1668
vn 0.9810 -0.1405 0.1338
vn 0.9694 0.0749 0.2337
vn 0.9577 0.1292 0.2571
vn 0.9911 -0.1194 -0.0590
vn 0.9999 0.0140 -0.0055
vn 0.9191 -0.3621 -0.1557
vn 0.8591 -0.4716 -0.1990
vn 0.4693 -0.5608 -0.6821
vn 0.5303 -0.5099 -0.6773
vn 0.3351 -0.6539 -0.6783
vn 0.2829 -0.6841 -0.6723
vn -0.4751 -0.6575 -0.5848
vn -0.8042 -0.5656 0.1829
vn -0.7319 -0.1197 0.6708
vn -0.2143 0.1812 0.9598
vn 0.4456 0.1609 0.8807
vn 0.8611 -0.1687 0.4797
vn 0.7888 -0.6146 -0.0082
vn 0.2711 -0.9155 -0.2973
vn -0.3887 -0.8952 -0.2181
vn -0.8611 0.1687 -0.4797
vn -0.7888 0.6146 0.0082
vn -0.2711 0.9155 0.2973
vn 0.3887 0.8952 0.2181
vn 0.8042 0.5656 -0.1829
vn 0.7319 0.1197 -0.6708
vn 0.2143 -0.1812 -0.9598
vn -0.4456 -0.1609 -0.8807
vn -0.3312 0.6440 -0.6897
vn -0.3072 0.7919 -0.5278
vn -0.1355 0.8917 -0.4319
vn 0.0834 0.8849 -0.4582
vn 0.2212 0.7756 -0.5912
vn 0.1972 0.6277 -0.7530
vn 0.0255 0.5279 -0.8489
vn -0.1933 0.5347 -0.8227
# 85 vertex normals

g R_Finger0
usemtl wire_088144225
s off
f 1//1 2//1 3//1 4//1 
f 1//2 5//2 6//2 
f 1//3 4//3 7//3 5//3 
f 4//4 8//4 7//4 
f 4//5 3//5 9//5 8//5 
f 3//6 10//6 9//6 
f 3//7 2//7 11//7 10//7 
f 2//8 12//8 11//8 
f 2//9 1//9 6//9 12//9 
s 8
f 6//10 5//11 13//12 14//13 
s 16
f 5//14 7//15 15//16 13//17 
s 8
f 7//18 8//19 16//20 15//21 
s 16
f 8//22 9//22 17//22 16//22 
s 8
f 9//23 10//24 18//25 17//26 
s 16
f 10//27 11//28 19//29 18//30 
s 8
f 11//31 12//32 20//33 19//34 
s 16
f 12//35 6//35 14//35 20//35 
s 2
f 14//36 13//37 21//38 22//39 
s 4
f 13//40 15//41 23//42 21//43 
s 2
f 15//44 16//45 24//46 23//47 
s 4
f 16//48 17//48 25//48 24//48 
s 2
f 17//49 18//50 26//51 25//52 
s 4
f 18//53 19//54 27//55 26//56 
s 2
f 19//57 20//58 28//59 27//60 
s 4
f 20//61 14//61 22//61 28//61 
s off
f 22//62 21//62 29//62 30//62 
f 21//63 23//63 31//63 29//63 
f 23//64 24//64 32//64 31//64 
f 24//65 25//65 33//65 32//65 
f 25//66 26//66 34//66 33//66 
f 26//67 27//67 35//67 34//67 
f 27//68 28//68 36//68 35//68 
f 28//69 22//69 30//69 36//69 
f 30//70 29//70 37//70 38//70 
f 29//71 31//71 39//71 37//71 
f 31//72 32//72 40//72 39//72 
f 32//73 33//73 41//73 40//73 
f 33//74 34//74 42//74 41//74 
f 34//75 35//75 43//75 42//75 
f 35//76 36//76 44//76 43//76 
f 36//77 30//77 38//77 44//77 
f 45//78 38//78 37//78 
f 45//79 37//79 39//79 
f 45//80 39//80 40//80 
f 45//81 40//81 41//81 
f 45//82 41//82 42//82 
f 45//83 42//83 43//83 
f 45//84 43//84 44//84 
f 45//85 44//85 38//85 
# 37 polygons - 12 triangles

