# 3ds Max Wavefront OBJ Exporter v0.97b - (c)2007 guruware
# File Created: 03.02.2017 21:44:46

mtllib right_thumb_1.mtl

#
# object R_Finger01
#

v  -0.5906 0.9815 0.1527
v  -0.5880 0.9806 0.1515
v  -0.5865 0.9819 0.1538
v  -0.5891 0.9828 0.1550
v  -0.5923 0.9857 0.1514
v  -0.5914 0.9841 0.1489
v  -0.5909 0.9869 0.1537
v  -0.5879 0.9873 0.1545
v  -0.5853 0.9864 0.1534
v  -0.5844 0.9848 0.1508
v  -0.5858 0.9836 0.1485
v  -0.5888 0.9833 0.1477
v  -0.5916 0.9974 0.1445
v  -0.5916 0.9961 0.1423
v  -0.5887 0.9982 0.1461
v  -0.5866 0.9988 0.1473
v  -0.5851 0.9983 0.1467
v  -0.5851 0.9970 0.1445
v  -0.5851 0.9953 0.1416
v  -0.5872 0.9947 0.1404
v  -0.5917 1.0055 0.1397
v  -0.5907 1.0037 0.1368
v  -0.5900 1.0070 0.1424
v  -0.5866 1.0073 0.1433
v  -0.5836 1.0063 0.1419
v  -0.5826 1.0046 0.1391
v  -0.5843 1.0031 0.1364
v  -0.5877 1.0027 0.1354
v  -0.5934 1.0088 0.1380
v  -0.5920 1.0063 0.1339
v  -0.5910 1.0109 0.1418
v  -0.5862 1.0114 0.1431
v  -0.5819 1.0100 0.1412
v  -0.5805 1.0075 0.1371
v  -0.5829 1.0054 0.1333
v  -0.5877 1.0049 0.1319
v  -0.5913 1.0117 0.1360
v  -0.5904 1.0100 0.1331
v  -0.5897 1.0132 0.1387
v  -0.5863 1.0136 0.1396
v  -0.5832 1.0126 0.1382
v  -0.5822 1.0108 0.1354
v  -0.5839 1.0093 0.1327
v  -0.5873 1.0090 0.1317
v  -0.5867 1.0126 0.1349
# 45 vertices

vn -0.0515 -0.8585 0.5102
vn -0.8966 -0.4414 -0.0343
vn -0.7676 -0.2175 0.6029
vn -0.2757 0.1093 0.9550
vn 0.3791 -0.0977 0.9202
vn 0.8546 -0.2585 0.4503
vn 0.7126 -0.6992 -0.0581
vn 0.2337 -0.8092 -0.5390
vn -0.4341 -0.8189 -0.3754
vn -0.9695 -0.0896 -0.2280
vn -0.9589 -0.1002 -0.2654
vn -0.9987 -0.0349 -0.0369
vn -0.9997 -0.0215 0.0092
vn -0.8175 0.4205 0.3935
vn -0.8593 0.4027 0.3152
vn -0.5955 0.4558 0.6615
vn -0.5316 0.4561 0.7137
vn -0.3130 0.5428 0.7794
vn -0.2766 0.5370 0.7969
vn -0.4829 0.5580 0.6748
vn -0.5212 0.5584 0.6454
vn 0.4808 0.4265 0.7661
vn 0.9692 0.1614 0.1861
vn 0.9593 0.1854 0.2131
vn 0.9988 0.0309 0.0391
vn 1.0000 0.0008 0.0051
vn 0.9150 -0.2270 -0.3335
vn 0.8753 -0.2848 -0.3908
vn 0.9959 0.0099 -0.0902
vn 0.9974 0.0642 -0.0327
vn 0.3120 -0.5431 -0.7795
vn 0.2753 -0.5539 -0.7857
vn 0.4933 -0.4746 -0.7290
vn 0.5331 -0.4557 -0.7129
vn -0.4808 -0.4265 -0.7661
vn -0.9973 -0.0405 -0.0620
vn -0.9997 -0.0238 0.0106
vn -0.9729 -0.0758 -0.2183
vn -0.9581 -0.0880 -0.2726
vn -0.6312 0.2326 0.7400
vn -0.5276 0.2270 0.8186
vn -0.8098 0.2316 0.5390
vn -0.8768 0.2249 0.4251
vn -0.4743 0.3309 0.8158
vn -0.5337 0.3357 0.7762
vn -0.3329 0.3143 0.8891
vn -0.2835 0.3069 0.9086
vn 0.4761 0.3662 0.7995
vn 0.9596 -0.1948 0.2030
vn 0.9541 -0.2551 0.1570
vn 0.9528 -0.0629 0.2969
vn 0.9439 -0.0133 0.3300
vn 0.9798 -0.1982 -0.0269
vn 0.9955 -0.0790 0.0525
vn 0.8955 -0.4098 -0.1737
vn 0.8301 -0.5028 -0.2412
vn 0.4704 -0.4600 -0.7531
vn 0.5348 -0.4170 -0.7349
vn 0.3292 -0.5391 -0.7753
vn 0.2744 -0.5648 -0.7783
vn -0.4833 -0.4847 -0.7291
vn -0.8586 -0.5122 0.0222
vn -0.7859 -0.1778 0.5922
vn -0.2678 0.0117 0.9634
vn 0.3922 -0.0548 0.9183
vn 0.8075 -0.3382 0.4833
vn 0.7348 -0.6727 -0.0868
vn 0.2168 -0.8622 -0.4579
vn -0.4432 -0.7957 -0.4128
vn -0.8075 0.3382 -0.4833
vn -0.7348 0.6727 0.0868
vn -0.2168 0.8622 0.4579
vn 0.4432 0.7957 0.4128
vn 0.8586 0.5122 -0.0222
vn 0.7859 0.1778 -0.5922
vn 0.2678 -0.0117 -0.9634
vn -0.3922 0.0548 -0.9183
vn -0.2270 0.7932 -0.5651
vn -0.2029 0.9041 -0.3760
vn -0.0310 0.9670 -0.2529
vn 0.1879 0.9450 -0.2679
vn 0.3257 0.8509 -0.4121
vn 0.3016 0.7400 -0.6012
vn 0.1297 0.6772 -0.7243
vn -0.0892 0.6992 -0.7093
# 85 vertex normals

g R_Finger01
usemtl wire_088144225
s off
f 1//1 2//1 3//1 4//1 
f 1//2 5//2 6//2 
f 1//3 4//3 7//3 5//3 
f 4//4 8//4 7//4 
f 4//5 3//5 9//5 8//5 
f 3//6 10//6 9//6 
f 3//7 2//7 11//7 10//7 
f 2//8 12//8 11//8 
f 2//9 1//9 6//9 12//9 
s 8
f 6//10 5//11 13//12 14//13 
s 16
f 5//14 7//15 15//16 13//17 
s 8
f 7//18 8//19 16//20 15//21 
s 16
f 8//22 9//22 17//22 16//22 
s 8
f 9//23 10//24 18//25 17//26 
s 16
f 10//27 11//28 19//29 18//30 
s 8
f 11//31 12//32 20//33 19//34 
s 16
f 12//35 6//35 14//35 20//35 
s 2
f 14//36 13//37 21//38 22//39 
s 4
f 13//40 15//41 23//42 21//43 
s 2
f 15//44 16//45 24//46 23//47 
s 4
f 16//48 17//48 25//48 24//48 
s 2
f 17//49 18//50 26//51 25//52 
s 4
f 18//53 19//54 27//55 26//56 
s 2
f 19//57 20//58 28//59 27//60 
s 4
f 20//61 14//61 22//61 28//61 
s off
f 22//62 21//62 29//62 30//62 
f 21//63 23//63 31//63 29//63 
f 23//64 24//64 32//64 31//64 
f 24//65 25//65 33//65 32//65 
f 25//66 26//66 34//66 33//66 
f 26//67 27//67 35//67 34//67 
f 27//68 28//68 36//68 35//68 
f 28//69 22//69 30//69 36//69 
f 30//70 29//70 37//70 38//70 
f 29//71 31//71 39//71 37//71 
f 31//72 32//72 40//72 39//72 
f 32//73 33//73 41//73 40//73 
f 33//74 34//74 42//74 41//74 
f 34//75 35//75 43//75 42//75 
f 35//76 36//76 44//76 43//76 
f 36//77 30//77 38//77 44//77 
f 45//78 38//78 37//78 
f 45//79 37//79 39//79 
f 45//80 39//80 40//80 
f 45//81 40//81 41//81 
f 45//82 41//82 42//82 
f 45//83 42//83 43//83 
f 45//84 43//84 44//84 
f 45//85 44//85 38//85 
# 37 polygons - 12 triangles

