# 3ds Max Wavefront OBJ Exporter v0.97b - (c)2007 guruware
# File Created: 03.02.2017 21:45:22

mtllib right_hand_base.mtl

#
# object R_Hand
#

v  -0.5767 1.0444 0.0762
v  -0.5984 1.0494 0.0644
v  -0.5870 1.0565 0.0958
v  -0.5738 1.0448 0.0935
v  -0.6029 1.0327 0.1357
v  -0.5933 1.0155 0.1350
v  -0.6113 1.0113 0.1483
v  -0.6065 1.0010 0.1475
v  -0.5850 1.0192 0.1155
v  -0.5820 1.0226 0.0898
v  -0.5936 1.0242 0.0852
v  -0.5852 1.0377 0.0620
v  -0.6376 0.9769 0.0739
v  -0.6150 0.9868 0.1342
v  -0.6441 0.9950 0.0906
v  -0.6457 0.9900 0.0758
v  -0.6239 1.0010 0.1379
v  -0.6105 1.0101 0.0580
v  -0.6243 1.0225 0.0604
v  -0.6192 1.0000 0.0615
v  -0.6375 0.9822 0.0604
v  -0.6422 0.9926 0.0612
v  -0.5931 1.0222 0.0720
v  -0.6037 1.0123 0.0615
v  -0.6222 0.9871 0.0696
v  -0.5997 1.0003 0.1340
v  -0.6174 1.0343 0.1062
v  -0.6252 1.0301 0.0796
# 28 vertices

vn 0.4409 0.8228 -0.3588
vn 0.3683 0.7769 -0.5107
vn 0.4841 0.8519 -0.1996
vn 0.6578 0.7516 -0.0484
vn 0.5576 0.4227 0.7144
vn 0.7088 0.3087 0.6343
vn 0.6732 0.3390 0.6572
vn 0.5239 0.4437 0.7271
vn 0.4978 0.2006 0.8437
vn 0.5679 0.1679 0.8058
vn 0.5317 0.1852 0.8264
vn 0.4766 0.2099 0.8537
vn 0.9172 -0.3977 -0.0234
vn 0.6908 -0.7175 0.0887
vn 0.5564 -0.7536 -0.3500
vn 0.8133 -0.4876 -0.3174
vn 0.6524 -0.7534 0.0826
vn 0.1512 -0.8358 -0.5278
vn 0.4214 0.6108 -0.6703
vn -0.7991 -0.5066 0.3239
vn -0.7707 -0.5000 0.3949
vn -0.7820 -0.5153 0.3508
vn -0.8562 -0.4556 0.2436
vn -0.3728 -0.3008 0.8778
vn -0.3574 -0.3662 0.8592
vn -0.3877 -0.2264 0.8935
vn -0.4014 -0.1437 0.9046
vn -0.0983 0.0846 -0.9916
vn -0.0974 0.0842 -0.9917
vn -0.1007 0.0855 -0.9912
vn -0.1017 0.0859 -0.9911
vn -0.2769 -0.1244 -0.9528
vn -0.0861 -0.0551 -0.9948
vn -0.1449 -0.0295 -0.9890
vn -0.0167 -0.0848 -0.9963
vn 0.0293 -0.1042 -0.9941
vn 0.7691 -0.6237 -0.1392
vn 0.7876 -0.6161 -0.0057
vn 0.5202 -0.8287 -0.2063
vn 0.7410 -0.6604 -0.1216
vn 0.7401 -0.6621 -0.1177
vn 0.7392 -0.6639 -0.1137
vn 0.7407 -0.6610 -0.1203
vn 0.6764 -0.6574 0.3322
vn 0.6814 -0.7316 0.0224
vn 0.5872 -0.7921 -0.1668
vn 0.6969 -0.7099 0.1020
vn 0.5623 -0.8039 -0.1936
vn 0.5013 -0.7919 -0.3488
vn -0.5863 0.7889 0.1842
vn -0.5380 0.7839 0.3098
vn -0.6094 0.7831 0.1239
vn -0.6508 0.7590 -0.0182
vn -0.7040 0.6495 -0.2872
vn -0.6693 0.7367 -0.0965
vn -0.8542 0.4948 -0.1600
vn -0.8625 0.4943 -0.1083
vn -0.8517 0.5178 0.0800
vn -0.8447 0.5347 -0.0228
vn -0.7265 0.5706 0.3829
vn -0.7901 0.5498 0.2709
vn -0.7712 0.5426 0.3327
vn -0.7282 0.5691 0.3818
vn 0.4602 -0.8534 -0.2448
vn 0.7366 -0.6656 -0.1200
vn 0.7525 -0.6527 0.0883
vn 0.8871 -0.4443 0.1251
vn 0.8909 -0.4536 -0.0246
vn 0.8091 -0.3903 0.4393
vn 0.7928 -0.4988 -0.3502
vn 0.7197 -0.5294 -0.4491
vn 0.5330 -0.5664 -0.6286
vn -0.8279 0.5065 -0.2409
vn -0.8776 -0.2739 -0.3935
vn -0.8697 -0.3321 -0.3651
vn -0.8556 -0.3993 -0.3294
vn -0.8667 -0.3487 -0.3566
vn -0.7753 -0.4887 0.4002
# 78 vertex normals

g R_Hand
usemtl wire_088144225
s 8
f 1//1 2//2 3//3 4//4 
s 16
f 3//5 5//6 6//7 4//8 
s 32
f 5//9 7//10 8//11 6//12 
s 8192
f 4//13 9//14 10//15 1//16 
f 6//17 9//14 4//13 
f 10//15 11//18 1//16 
f 11//18 10//15 9//14 6//17 
s 8
f 2//2 1//1 12//19 
s 128
f 13//20 14//21 15//22 16//23 
s 64
f 17//24 14//25 8//26 7//27 
s 2048
f 18//28 19//29 2//30 12//31 
s 1024
f 20//32 19//32 18//32 
s 512
f 21//33 22//34 19//35 20//36 
s 4096
f 12//37 23//38 24//39 
s 16384
f 6//40 20//41 18//42 11//43 
s 65536
f 8//44 14//45 25//46 26//47 
f 25//46 14//45 13//48 21//49 
s 2
f 27//50 5//51 3//52 2//53 
f 2//53 19//54 28//55 27//50 
s 4
f 22//56 16//57 15//58 28//59 
f 5//60 27//61 17//62 7//63 
s 4096
f 24//39 18//64 12//37 
f 12//37 1//65 11//66 23//38 
f 23//38 11//66 18//64 24//39 
s 32768
f 26//67 6//68 8//69 
f 20//70 25//71 21//72 
f 6//68 26//67 25//71 20//70 
s 4
f 22//56 28//59 19//73 
f 28//59 15//58 17//62 27//61 
s 256
f 22//74 21//75 13//76 16//77 
s 128
f 15//22 14//21 17//78 
# 21 polygons - 10 triangles

