# 3ds Max Wavefront OBJ Exporter v0.97b - (c)2007 guruware
# File Created: 03.02.2017 21:44:28

mtllib right_thumb_2.mtl

#
# object R_Finger02
#

v  -0.5947 0.9568 0.1616
v  -0.5920 0.9559 0.1603
v  -0.5905 0.9567 0.1630
v  -0.5933 0.9576 0.1643
v  -0.5963 0.9608 0.1613
v  -0.5953 0.9596 0.1583
v  -0.5948 0.9616 0.1640
v  -0.5917 0.9615 0.1651
v  -0.5889 0.9606 0.1639
v  -0.5879 0.9593 0.1609
v  -0.5893 0.9586 0.1582
v  -0.5925 0.9587 0.1571
v  -0.5945 0.9718 0.1573
v  -0.5944 0.9709 0.1548
v  -0.5915 0.9721 0.1593
v  -0.5892 0.9722 0.1609
v  -0.5877 0.9717 0.1602
v  -0.5876 0.9708 0.1576
v  -0.5875 0.9696 0.1542
v  -0.5898 0.9694 0.1527
v  -0.5939 0.9795 0.1546
v  -0.5928 0.9781 0.1512
v  -0.5922 0.9803 0.1578
v  -0.5886 0.9802 0.1590
v  -0.5853 0.9791 0.1576
v  -0.5842 0.9778 0.1542
v  -0.5859 0.9769 0.1510
v  -0.5895 0.9770 0.1498
v  -0.5954 0.9827 0.1536
v  -0.5938 0.9808 0.1489
v  -0.5930 0.9840 0.1581
v  -0.5879 0.9838 0.1599
v  -0.5833 0.9823 0.1578
v  -0.5817 0.9803 0.1531
v  -0.5842 0.9791 0.1485
v  -0.5892 0.9793 0.1468
v  -0.5929 0.9853 0.1524
v  -0.5918 0.9839 0.1491
v  -0.5912 0.9862 0.1557
v  -0.5876 0.9861 0.1569
v  -0.5843 0.9850 0.1554
v  -0.5832 0.9836 0.1521
v  -0.5850 0.9827 0.1489
v  -0.5885 0.9829 0.1477
v  -0.5879 0.9857 0.1518
# 45 vertices

vn -0.1525 -0.9295 0.3358
vn -0.9237 -0.3463 -0.1641
vn -0.8216 -0.2554 0.5097
vn -0.3310 -0.0437 0.9426
vn 0.3066 -0.2981 0.9039
vn 0.7993 -0.4115 0.4379
vn 0.6587 -0.7371 -0.1512
vn 0.2067 -0.7141 -0.6688
vn -0.4695 -0.6943 -0.5454
vn -0.9557 0.0402 -0.2916
vn -0.9434 0.0357 -0.3297
vn -0.9935 0.0613 -0.0954
vn -0.9967 0.0660 -0.0477
vn -0.8075 0.4120 0.4221
vn -0.8451 0.4127 0.3397
vn -0.6023 0.3778 0.7032
vn -0.5423 0.3628 0.7579
vn -0.3226 0.4162 0.8501
vn -0.2881 0.4041 0.8682
vn -0.4833 0.4654 0.7415
vn -0.5193 0.4745 0.7107
vn 0.4589 0.2343 0.8570
vn 0.9638 0.0379 0.2640
vn 0.9539 0.0573 0.2945
vn 0.9931 -0.0655 0.0968
vn 0.9944 -0.0889 0.0578
vn 0.9153 -0.2423 -0.3216
vn 0.8753 -0.2848 -0.3908
vn 0.9975 -0.0622 -0.0341
vn 0.9993 -0.0197 0.0326
vn 0.3216 -0.4164 -0.8504
vn 0.2847 -0.4226 -0.8605
vn 0.5038 -0.3746 -0.7783
vn 0.5437 -0.3627 -0.7569
vn -0.4589 -0.2343 -0.8570
vn -0.9908 0.0602 -0.1210
vn -0.9969 0.0635 -0.0468
vn -0.9587 0.0521 -0.2796
vn -0.9412 0.0489 -0.3344
vn -0.6604 0.1480 0.7362
vn -0.5632 0.1189 0.8177
vn -0.8244 0.1997 0.5296
vn -0.8837 0.2200 0.4131
vn -0.5020 0.2164 0.8374
vn -0.5579 0.2336 0.7963
vn -0.3675 0.1741 0.9136
vn -0.3203 0.1589 0.9339
vn 0.4473 0.1696 0.8782
vn 0.9255 -0.3131 0.2129
vn 0.9185 -0.3632 0.1561
vn 0.9226 -0.2006 0.3295
vn 0.9153 -0.1573 0.3709
vn 0.9611 -0.2761 -0.0121
vn 0.9805 -0.1753 0.0890
vn 0.8709 -0.4488 -0.2004
vn 0.8033 -0.5216 -0.2875
vn 0.4838 -0.3540 -0.8004
vn 0.5499 -0.3209 -0.7711
vn 0.3387 -0.4147 -0.8446
vn 0.2824 -0.4345 -0.8552
vn -0.4684 -0.2979 -0.8318
vn -0.8951 -0.4294 -0.1200
vn -0.8359 -0.2130 0.5058
vn -0.3313 -0.1415 0.9328
vn 0.3231 -0.2569 0.9108
vn 0.7440 -0.4915 0.4527
vn 0.6848 -0.7078 -0.1732
vn 0.1802 -0.7793 -0.6002
vn -0.4742 -0.6640 -0.5782
vn -0.7440 0.4915 -0.4527
vn -0.6848 0.7078 0.1732
vn -0.1802 0.7793 0.6002
vn 0.4742 0.6639 0.5782
vn 0.8951 0.4294 0.1200
vn 0.8359 0.2130 -0.5058
vn 0.3313 0.1415 -0.9328
vn -0.3231 0.2569 -0.9108
vn -0.1258 0.9004 -0.4165
vn -0.1061 0.9722 -0.2089
vn 0.0612 0.9959 -0.0673
vn 0.2783 0.9576 -0.0746
vn 0.4179 0.8798 -0.2266
vn 0.3983 0.8080 -0.4342
vn 0.2309 0.7843 -0.5758
vn 0.0138 0.8226 -0.5685
# 85 vertex normals

g R_Finger02
usemtl wire_088144225
s off
f 1//1 2//1 3//1 4//1 
f 1//2 5//2 6//2 
f 1//3 4//3 7//3 5//3 
f 4//4 8//4 7//4 
f 4//5 3//5 9//5 8//5 
f 3//6 10//6 9//6 
f 3//7 2//7 11//7 10//7 
f 2//8 12//8 11//8 
f 2//9 1//9 6//9 12//9 
s 8
f 6//10 5//11 13//12 14//13 
s 16
f 5//14 7//15 15//16 13//17 
s 8
f 7//18 8//19 16//20 15//21 
s 16
f 8//22 9//22 17//22 16//22 
s 8
f 9//23 10//24 18//25 17//26 
s 16
f 10//27 11//28 19//29 18//30 
s 8
f 11//31 12//32 20//33 19//34 
s 16
f 12//35 6//35 14//35 20//35 
s 2
f 14//36 13//37 21//38 22//39 
s 4
f 13//40 15//41 23//42 21//43 
s 2
f 15//44 16//45 24//46 23//47 
s 4
f 16//48 17//48 25//48 24//48 
s 2
f 17//49 18//50 26//51 25//52 
s 4
f 18//53 19//54 27//55 26//56 
s 2
f 19//57 20//58 28//59 27//60 
s 4
f 20//61 14//61 22//61 28//61 
s off
f 22//62 21//62 29//62 30//62 
f 21//63 23//63 31//63 29//63 
f 23//64 24//64 32//64 31//64 
f 24//65 25//65 33//65 32//65 
f 25//66 26//66 34//66 33//66 
f 26//67 27//67 35//67 34//67 
f 27//68 28//68 36//68 35//68 
f 28//69 22//69 30//69 36//69 
f 30//70 29//70 37//70 38//70 
f 29//71 31//71 39//71 37//71 
f 31//72 32//72 40//72 39//72 
f 32//73 33//73 41//73 40//73 
f 33//74 34//74 42//74 41//74 
f 34//75 35//75 43//75 42//75 
f 35//76 36//76 44//76 43//76 
f 36//77 30//77 38//77 44//77 
f 45//78 38//78 37//78 
f 45//79 37//79 39//79 
f 45//80 39//80 40//80 
f 45//81 40//81 41//81 
f 45//82 41//82 42//82 
f 45//83 42//83 43//83 
f 45//84 43//84 44//84 
f 45//85 44//85 38//85 
# 37 polygons - 12 triangles

