# 3ds Max Wavefront OBJ Exporter v0.97b - (c)2007 guruware
# File Created: 04.03.2017 23:06:22

mtllib torso2.mtl

#
# object polySurface20_ncl1_1
#

v  0.0002 0.0007 0.0001
v  0.0001 0.0005 0.0000
v  0.0001 0.0007 0.0002
v  0.0000 0.0005 0.0001
v  0.0000 0.0007 0.0002
v  -0.0001 0.0007 0.0002
v  -0.0000 0.0005 0.0001
v  -0.0002 0.0007 0.0001
v  -0.0001 0.0005 0.0000
v  -0.0002 0.0007 0.0000
v  -0.0002 0.0007 -0.0001
v  -0.0001 0.0005 -0.0000
v  -0.0001 0.0007 -0.0002
v  -0.0000 0.0005 -0.0001
v  0.0000 0.0007 -0.0002
v  0.0000 0.0005 -0.0001
v  0.0001 0.0007 -0.0002
v  0.0002 0.0007 -0.0001
v  0.0001 0.0005 -0.0000
v  0.0002 0.0007 0.0000
v  0.0000 0.0007 0.0000
v  0.0000 0.0005 0.0000
v  0.0002 0.0005 0.0001
v  0.0001 0.0002 0.0000
v  0.0001 0.0005 0.0002
v  0.0000 0.0002 0.0001
v  0.0000 0.0005 0.0002
v  -0.0001 0.0005 0.0002
v  -0.0000 0.0002 0.0001
v  -0.0002 0.0005 0.0001
v  -0.0001 0.0002 0.0000
v  -0.0002 0.0005 0.0000
v  -0.0002 0.0005 -0.0001
v  -0.0001 0.0002 -0.0000
v  -0.0001 0.0005 -0.0002
v  -0.0000 0.0002 -0.0001
v  0.0000 0.0005 -0.0002
v  0.0000 0.0002 -0.0001
v  0.0001 0.0005 -0.0002
v  0.0002 0.0005 -0.0001
v  0.0001 0.0002 -0.0000
v  0.0002 0.0005 0.0000
v  0.0000 0.0002 0.0000
v  0.0002 0.0002 0.0001
v  0.0001 -0.0000 0.0000
v  0.0001 0.0002 0.0002
v  0.0000 -0.0000 0.0001
v  0.0000 0.0002 0.0002
v  -0.0001 0.0002 0.0002
v  -0.0000 -0.0000 0.0001
v  -0.0002 0.0002 0.0001
v  -0.0001 -0.0000 0.0000
v  -0.0002 0.0002 0.0000
v  -0.0001 -0.0000 -0.0000
v  -0.0002 0.0002 -0.0001
v  -0.0001 0.0002 -0.0002
v  -0.0000 -0.0000 -0.0001
v  0.0000 0.0002 -0.0002
v  0.0000 -0.0000 -0.0001
v  0.0001 0.0002 -0.0002
v  0.0002 0.0002 -0.0001
v  0.0001 -0.0000 -0.0000
v  0.0002 0.0002 0.0000
v  0.0000 -0.0000 -0.0000
v  -0.0002 0.0007 -0.0000
v  0.0002 0.0007 -0.0000
v  -0.0002 0.0008 -0.0000
v  0.0002 0.0008 -0.0000
v  -0.0002 0.0008 0.0000
v  0.0002 0.0008 0.0000
# 70 vertices

vn 0.8568 -0.4325 0.2808
vn 0.7281 -0.4325 0.5318
vn 0.8529 -0.4324 0.2926
vn 0.7207 -0.4324 0.5418
vn 0.5281 -0.4325 0.7308
vn 0.5180 -0.4324 0.7380
vn 0.2764 -0.4325 0.8582
vn 0.2646 -0.4324 0.8620
vn -0.0023 -0.4325 0.9016
vn -0.0148 -0.4324 0.9015
vn -0.2808 -0.4325 0.8568
vn -0.2926 -0.4324 0.8529
vn -0.5318 -0.4325 0.7281
vn -0.5418 -0.4324 0.7207
vn -0.7308 -0.4325 0.5281
vn -0.7380 -0.4324 0.5180
vn -0.8582 -0.4325 0.2764
vn -0.8620 -0.4324 0.2646
vn -0.9016 -0.4325 -0.0023
vn -0.9015 -0.4324 -0.0148
vn -0.8568 -0.4325 -0.2808
vn -0.8529 -0.4324 -0.2926
vn -0.7281 -0.4325 -0.5318
vn -0.7207 -0.4324 -0.5418
vn -0.5281 -0.4325 -0.7308
vn -0.5180 -0.4324 -0.7380
vn -0.2764 -0.4325 -0.8582
vn -0.2646 -0.4324 -0.8620
vn 0.0023 -0.4325 -0.9016
vn 0.0148 -0.4324 -0.9015
vn 0.2808 -0.4325 -0.8568
vn 0.2926 -0.4324 -0.8529
vn 0.5318 -0.4325 -0.7281
vn 0.5418 -0.4324 -0.7207
vn 0.7308 -0.4325 -0.5281
vn 0.7380 -0.4324 -0.5180
vn 0.8582 -0.4325 -0.2764
vn 0.8620 -0.4324 -0.2646
vn 0.9016 -0.4325 0.0023
vn 0.9015 -0.4324 0.0148
vn 0.0000 1.0000 0.0000
vn 0.0000 -1.0000 -0.0000
vn 0.0000 1.0000 -0.0000
vn 0.0000 -1.0000 0.0000
vn 0.0000 -0.9511 -0.3090
vn 0.0000 -0.8090 -0.5878
vn 0.0000 -0.5878 -0.8090
vn 0.0000 -0.3090 -0.9511
vn 0.0000 0.0000 -1.0000
vn 0.0000 0.3090 -0.9511
vn 0.0000 0.5878 -0.8090
vn 0.0000 0.8090 -0.5878
vn 0.0000 0.9511 -0.3090
vn 0.0000 0.9511 0.3090
vn 0.0000 0.8090 0.5878
vn 0.0000 0.5878 0.8090
vn 0.0000 0.3090 0.9511
vn 0.0000 -0.0000 1.0000
vn 0.0000 -0.3090 0.9511
vn 0.0000 -0.5878 0.8090
vn 0.0000 -0.8090 0.5878
vn 0.0000 -0.9511 0.3090
vn -1.0000 0.0000 0.0000
vn -1.0000 0.0000 -0.0000
vn -1.0000 -0.0000 -0.0000
vn 1.0000 0.0000 -0.0000
vn 1.0000 -0.0000 -0.0000
vn 1.0000 0.0000 0.0000
# 68 vertex normals

vt 0.3750 0.3125 0.0000
vt 0.3875 0.3125 0.0000
vt 0.3750 0.6884 0.0000
vt 0.3875 0.6884 0.0000
vt 0.4000 0.3125 0.0000
vt 0.4000 0.6884 0.0000
vt 0.4125 0.3125 0.0000
vt 0.4125 0.6884 0.0000
vt 0.4250 0.3125 0.0000
vt 0.4250 0.6884 0.0000
vt 0.4375 0.3125 0.0000
vt 0.4375 0.6884 0.0000
vt 0.4500 0.3125 0.0000
vt 0.4500 0.6884 0.0000
vt 0.4625 0.3125 0.0000
vt 0.4625 0.6884 0.0000
vt 0.4750 0.3125 0.0000
vt 0.4750 0.6884 0.0000
vt 0.4875 0.3125 0.0000
vt 0.4875 0.6884 0.0000
vt 0.5000 0.3125 0.0000
vt 0.5000 0.6884 0.0000
vt 0.5125 0.3125 0.0000
vt 0.5125 0.6884 0.0000
vt 0.5250 0.3125 0.0000
vt 0.5250 0.6884 0.0000
vt 0.5375 0.3125 0.0000
vt 0.5375 0.6884 0.0000
vt 0.5500 0.3125 0.0000
vt 0.5500 0.6884 0.0000
vt 0.5625 0.3125 0.0000
vt 0.5625 0.6884 0.0000
vt 0.5750 0.3125 0.0000
vt 0.5750 0.6884 0.0000
vt 0.5875 0.3125 0.0000
vt 0.5875 0.6884 0.0000
vt 0.6000 0.3125 0.0000
vt 0.6000 0.6884 0.0000
vt 0.6125 0.3125 0.0000
vt 0.6125 0.6884 0.0000
vt 0.6250 0.3125 0.0000
vt 0.6250 0.6884 0.0000
vt 0.6264 0.0644 0.0000
vt 0.6486 0.1080 0.0000
vt 0.5000 0.1500 0.0000
vt 0.5918 0.0298 0.0000
vt 0.5483 0.0076 0.0000
vt 0.5000 -0.0000 0.0000
vt 0.4517 0.0076 0.0000
vt 0.4082 0.0298 0.0000
vt 0.3736 0.0644 0.0000
vt 0.3514 0.1080 0.0000
vt 0.3438 0.1563 0.0000
vt 0.3514 0.2045 0.0000
vt 0.3736 0.2481 0.0000
vt 0.4082 0.2827 0.0000
vt 0.4517 0.3049 0.0000
vt 0.5483 0.3049 0.0000
vt 0.5918 0.2827 0.0000
vt 0.6264 0.2481 0.0000
vt 0.6486 0.2045 0.0000
vt 0.6563 0.1563 0.0000
vt 0.6486 0.8920 0.0000
vt 0.6264 0.9356 0.0000
vt 0.5000 0.8375 0.0000
vt 0.5918 0.9702 0.0000
vt 0.5483 0.9924 0.0000
vt 0.5000 1.0000 0.0000
vt 0.4517 0.9924 0.0000
vt 0.4082 0.9702 0.0000
vt 0.3736 0.9356 0.0000
vt 0.3514 0.8920 0.0000
vt 0.3438 0.8438 0.0000
vt 0.3514 0.7955 0.0000
vt 0.3736 0.7519 0.0000
vt 0.4082 0.7173 0.0000
vt 0.4517 0.6951 0.0000
vt 0.5000 0.6875 0.0000
vt 0.5483 0.6951 0.0000
vt 0.5918 0.7173 0.0000
vt 0.6264 0.7519 0.0000
vt 0.6486 0.7955 0.0000
vt 0.6563 0.8438 0.0000
# 83 texture coords

g polySurface20_ncl1_1
usemtl lambert2
s off
f 1/1/1 1/2/2 2/3/3 
f 2/3/3 1/2/2 2/4/4 
f 1/2/2 3/5/5 2/4/4 
f 2/4/4 3/5/5 4/6/6 
f 3/5/5 3/7/7 4/6/6 
f 4/6/6 3/7/7 4/8/8 
f 3/7/7 5/9/9 4/8/8 
f 4/8/8 5/9/9 4/10/10 
f 5/9/9 6/11/11 4/10/10 
f 4/10/10 6/11/11 7/12/12 
f 6/11/11 6/13/13 7/12/12 
f 7/12/12 6/13/13 7/14/14 
f 6/13/13 8/15/15 7/14/14 
f 7/14/14 8/15/15 9/16/16 
f 8/15/15 8/17/17 9/16/16 
f 9/16/16 8/17/17 9/18/18 
f 8/17/17 10/19/19 9/18/18 
f 9/18/18 10/19/19 9/20/20 
f 10/19/19 11/21/21 9/20/20 
f 9/20/20 11/21/21 12/22/22 
f 11/21/21 11/23/23 12/22/22 
f 12/22/22 11/23/23 12/24/24 
f 11/23/23 13/25/25 12/24/24 
f 12/24/24 13/25/25 14/26/26 
f 13/25/25 13/27/27 14/26/26 
f 14/26/26 13/27/27 14/28/28 
f 13/27/27 15/29/29 14/28/28 
f 14/28/28 15/29/29 16/30/30 
f 15/29/29 17/31/31 16/30/30 
f 16/30/30 17/31/31 16/32/32 
f 17/31/31 17/33/33 16/32/32 
f 16/32/32 17/33/33 16/34/34 
f 17/33/33 18/35/35 16/34/34 
f 16/34/34 18/35/35 19/36/36 
f 18/35/35 18/37/37 19/36/36 
f 19/36/36 18/37/37 19/38/38 
f 18/37/37 20/39/39 19/38/38 
f 19/38/38 20/39/39 2/40/40 
f 20/39/39 1/41/1 2/40/40 
f 2/40/40 1/41/1 2/42/3 
f 1/43/41 1/44/41 21/45/41 
f 3/46/41 1/43/41 21/45/41 
f 3/47/41 3/46/41 21/45/41 
f 5/48/41 3/47/41 21/45/41 
f 6/49/41 5/48/41 21/45/41 
f 6/50/41 6/49/41 21/45/41 
f 8/51/41 6/50/41 21/45/41 
f 8/52/41 8/51/41 21/45/41 
f 10/53/41 8/52/41 21/45/41 
f 11/54/41 10/53/41 21/45/41 
f 11/55/41 11/54/41 21/45/41 
f 13/56/41 11/55/41 21/45/41 
f 13/57/41 13/56/41 21/45/41 
f 15/21/41 13/57/41 21/45/41 
f 17/58/41 15/21/41 21/45/41 
f 17/59/41 17/58/41 21/45/41 
f 18/60/41 17/59/41 21/45/41 
f 18/61/41 18/60/41 21/45/41 
f 20/62/41 18/61/41 21/45/41 
f 1/44/41 20/62/41 21/45/41 
f 2/63/42 2/64/42 22/65/42 
f 2/64/42 4/66/42 22/65/42 
f 4/66/42 4/67/42 22/65/42 
f 4/67/42 4/68/42 22/65/42 
f 4/68/42 7/69/42 22/65/42 
f 7/69/42 7/70/42 22/65/42 
f 7/70/42 9/71/42 22/65/42 
f 9/71/42 9/72/42 22/65/42 
f 9/72/42 9/73/42 22/65/42 
f 9/73/42 12/74/42 22/65/42 
f 12/74/42 12/75/42 22/65/42 
f 12/75/42 14/76/42 22/65/42 
f 14/76/42 14/77/42 22/65/42 
f 14/77/42 16/78/42 22/65/42 
f 16/78/42 16/79/42 22/65/42 
f 16/79/42 16/80/42 22/65/42 
f 16/80/42 19/81/42 22/65/42 
f 19/81/42 19/82/42 22/65/42 
f 19/82/42 2/83/42 22/65/42 
f 2/83/42 2/63/42 22/65/42 
f 23/1/1 23/1/2 24/1/3 
f 24/1/3 23/1/2 24/1/4 
f 23/1/2 25/1/5 24/1/4 
f 24/1/4 25/1/5 26/1/6 
f 25/1/5 25/1/7 26/1/6 
f 26/1/6 25/1/7 26/1/8 
f 25/1/7 27/1/9 26/1/8 
f 26/1/8 27/1/9 26/1/10 
f 27/1/9 28/1/11 26/1/10 
f 26/1/10 28/1/11 29/1/12 
f 28/1/11 28/1/13 29/1/12 
f 29/1/12 28/1/13 29/1/14 
f 28/1/13 30/1/15 29/1/14 
f 29/1/14 30/1/15 31/1/16 
f 30/1/15 30/1/17 31/1/16 
f 31/1/16 30/1/17 31/1/18 
f 30/1/17 32/1/19 31/1/18 
f 31/1/18 32/1/19 31/1/20 
f 32/1/19 33/1/21 31/1/20 
f 31/1/20 33/1/21 34/1/22 
f 33/1/21 33/1/23 34/1/22 
f 34/1/22 33/1/23 34/1/24 
f 33/1/23 35/1/25 34/1/24 
f 34/1/24 35/1/25 36/1/26 
f 35/1/25 35/1/27 36/1/26 
f 36/1/26 35/1/27 36/1/28 
f 35/1/27 37/1/29 36/1/28 
f 36/1/28 37/1/29 38/1/30 
f 37/1/29 39/1/31 38/1/30 
f 38/1/30 39/1/31 38/1/32 
f 39/1/31 39/1/33 38/1/32 
f 38/1/32 39/1/33 38/1/34 
f 39/1/33 40/1/35 38/1/34 
f 38/1/34 40/1/35 41/1/36 
f 40/1/35 40/1/37 41/1/36 
f 41/1/36 40/1/37 41/1/38 
f 40/1/37 42/1/39 41/1/38 
f 41/1/38 42/1/39 24/1/40 
f 42/1/39 23/1/1 24/1/40 
f 24/1/40 23/1/1 24/1/3 
f 23/1/41 23/1/41 22/1/41 
f 25/1/41 23/1/41 22/1/41 
f 25/1/41 25/1/41 22/1/41 
f 27/1/41 25/1/41 22/1/41 
f 28/1/41 27/1/41 22/1/41 
f 28/1/41 28/1/41 22/1/41 
f 30/1/41 28/1/41 22/1/41 
f 30/1/41 30/1/41 22/1/41 
f 32/1/41 30/1/41 22/1/41 
f 33/1/41 32/1/41 22/1/41 
f 33/1/43 33/1/41 22/1/41 
f 35/1/41 33/1/43 22/1/41 
f 35/1/41 35/1/41 22/1/41 
f 37/1/41 35/1/41 22/1/41 
f 39/1/41 37/1/41 22/1/41 
f 39/1/41 39/1/41 22/1/41 
f 40/1/41 39/1/41 22/1/41 
f 40/1/41 40/1/41 22/1/41 
f 42/1/41 40/1/41 22/1/41 
f 23/1/41 42/1/41 22/1/41 
f 24/1/42 24/1/42 43/1/42 
f 24/1/42 26/1/42 43/1/42 
f 26/1/42 26/1/42 43/1/42 
f 26/1/42 26/1/42 43/1/42 
f 26/1/42 29/1/42 43/1/42 
f 29/1/42 29/1/42 43/1/42 
f 29/1/42 31/1/42 43/1/42 
f 31/1/42 31/1/42 43/1/42 
f 31/1/42 31/1/42 43/1/42 
f 31/1/42 34/1/42 43/1/42 
f 34/1/42 34/1/42 43/1/42 
f 34/1/42 36/1/42 43/1/42 
f 36/1/42 36/1/42 43/1/42 
f 36/1/42 38/1/42 43/1/42 
f 38/1/42 38/1/42 43/1/42 
f 38/1/42 38/1/42 43/1/42 
f 38/1/42 41/1/44 43/1/42 
f 41/1/44 41/1/44 43/1/42 
f 41/1/44 24/1/42 43/1/42 
f 24/1/42 24/1/42 43/1/42 
f 44/1/1 44/1/2 45/1/3 
f 45/1/3 44/1/2 45/1/4 
f 44/1/2 46/1/5 45/1/4 
f 45/1/4 46/1/5 47/1/6 
f 46/1/5 46/1/7 47/1/6 
f 47/1/6 46/1/7 47/1/8 
f 46/1/7 48/1/9 47/1/8 
f 47/1/8 48/1/9 47/1/10 
f 48/1/9 49/1/11 47/1/10 
f 47/1/10 49/1/11 50/1/12 
f 49/1/11 49/1/13 50/1/12 
f 50/1/12 49/1/13 50/1/14 
f 49/1/13 51/1/15 50/1/14 
f 50/1/14 51/1/15 52/1/16 
f 51/1/15 51/1/17 52/1/16 
f 52/1/16 51/1/17 52/1/18 
f 51/1/17 53/1/19 52/1/18 
f 52/1/18 53/1/19 54/1/20 
f 53/1/19 55/1/21 54/1/20 
f 54/1/20 55/1/21 54/1/22 
f 55/1/21 55/1/23 54/1/22 
f 54/1/22 55/1/23 54/1/24 
f 55/1/23 56/1/25 54/1/24 
f 54/1/24 56/1/25 57/1/26 
f 56/1/25 56/1/27 57/1/26 
f 57/1/26 56/1/27 57/1/28 
f 56/1/27 58/1/29 57/1/28 
f 57/1/28 58/1/29 59/1/30 
f 58/1/29 60/1/31 59/1/30 
f 59/1/30 60/1/31 59/1/32 
f 60/1/31 60/1/33 59/1/32 
f 59/1/32 60/1/33 59/1/34 
f 60/1/33 61/1/35 59/1/34 
f 59/1/34 61/1/35 62/1/36 
f 61/1/35 61/1/37 62/1/36 
f 62/1/36 61/1/37 62/1/38 
f 61/1/37 63/1/39 62/1/38 
f 62/1/38 63/1/39 62/1/40 
f 63/1/39 44/1/1 62/1/40 
f 62/1/40 44/1/1 45/1/3 
f 44/1/41 44/1/41 43/1/41 
f 46/1/41 44/1/41 43/1/41 
f 46/1/41 46/1/41 43/1/41 
f 48/1/41 46/1/41 43/1/41 
f 49/1/41 48/1/41 43/1/41 
f 49/1/41 49/1/41 43/1/41 
f 51/1/41 49/1/41 43/1/41 
f 51/1/41 51/1/41 43/1/41 
f 53/1/41 51/1/41 43/1/41 
f 55/1/41 53/1/41 43/1/41 
f 55/1/41 55/1/41 43/1/41 
f 56/1/41 55/1/41 43/1/41 
f 56/1/41 56/1/41 43/1/41 
f 58/1/41 56/1/41 43/1/41 
f 60/1/41 58/1/41 43/1/41 
f 60/1/41 60/1/41 43/1/41 
f 61/1/41 60/1/41 43/1/41 
f 61/1/41 61/1/41 43/1/41 
f 63/1/41 61/1/41 43/1/41 
f 44/1/41 63/1/41 43/1/41 
f 45/1/42 45/1/42 64/1/42 
f 45/1/42 47/1/42 64/1/42 
f 47/1/42 47/1/42 64/1/42 
f 47/1/42 47/1/42 64/1/42 
f 47/1/42 50/1/42 64/1/42 
f 50/1/42 50/1/42 64/1/42 
f 50/1/42 52/1/42 64/1/42 
f 52/1/42 52/1/42 64/1/42 
f 52/1/42 54/1/42 64/1/42 
f 54/1/42 54/1/42 64/1/42 
f 54/1/42 54/1/42 64/1/42 
f 54/1/42 57/1/42 64/1/42 
f 57/1/42 57/1/42 64/1/42 
f 57/1/42 59/1/42 64/1/42 
f 59/1/42 59/1/42 64/1/42 
f 59/1/42 59/1/42 64/1/42 
f 59/1/42 62/1/42 64/1/42 
f 62/1/42 62/1/42 64/1/42 
f 62/1/42 62/1/42 64/1/42 
f 62/1/42 45/1/42 64/1/42 
usemtl lambert1
f 65/1/45 65/1/46 66/1/45 
f 66/1/45 65/1/46 66/1/46 
f 65/1/46 65/1/47 66/1/46 
f 66/1/46 65/1/47 66/1/47 
f 65/1/47 65/1/48 66/1/47 
f 66/1/47 65/1/48 66/1/48 
f 65/1/48 11/1/49 66/1/48 
f 66/1/48 11/1/49 18/1/49 
f 11/1/49 67/1/50 18/1/49 
f 18/1/49 67/1/50 68/1/50 
f 67/1/50 67/1/51 68/1/50 
f 68/1/50 67/1/51 68/1/51 
f 67/1/51 67/1/52 68/1/51 
f 68/1/51 67/1/52 68/1/52 
f 67/1/52 67/1/53 68/1/52 
f 68/1/52 67/1/53 68/1/53 
f 67/1/53 69/1/41 68/1/53 
f 68/1/53 69/1/41 70/1/43 
f 69/1/41 69/1/54 70/1/43 
f 70/1/43 69/1/54 70/1/54 
f 69/1/54 69/1/55 70/1/54 
f 70/1/54 69/1/55 70/1/55 
f 69/1/55 69/1/56 70/1/55 
f 70/1/55 69/1/56 70/1/56 
f 69/1/56 69/1/57 70/1/56 
f 70/1/56 69/1/57 70/1/57 
f 69/1/57 8/1/58 70/1/57 
f 70/1/57 8/1/58 1/1/58 
f 8/1/58 10/1/59 1/1/58 
f 1/1/58 10/1/59 20/1/59 
f 10/1/59 10/1/60 20/1/59 
f 20/1/59 10/1/60 20/1/60 
f 10/1/60 10/1/61 20/1/60 
f 20/1/60 10/1/61 20/1/61 
f 10/1/61 10/1/62 20/1/61 
f 20/1/61 10/1/62 20/1/62 
f 10/1/62 10/1/42 20/1/62 
f 20/1/62 10/1/42 20/1/44 
f 10/1/42 65/1/45 20/1/44 
f 20/1/44 65/1/45 66/1/45 
f 65/1/63 65/1/63 10/1/64 
f 65/1/64 65/1/63 10/1/64 
f 65/1/64 65/1/64 10/1/64 
f 11/1/64 65/1/64 10/1/64 
f 67/1/64 11/1/64 10/1/64 
f 67/1/65 67/1/64 10/1/64 
f 67/1/65 67/1/65 10/1/64 
f 67/1/64 67/1/65 10/1/64 
f 69/1/64 67/1/64 10/1/64 
f 69/1/64 69/1/64 10/1/64 
f 69/1/63 69/1/64 10/1/64 
f 69/1/64 69/1/63 10/1/64 
f 69/1/65 69/1/64 10/1/64 
f 8/1/63 69/1/65 10/1/64 
f 10/1/63 8/1/63 10/1/64 
f 10/1/64 10/1/63 10/1/64 
f 10/1/64 10/1/64 10/1/64 
f 10/1/64 10/1/64 10/1/64 
f 10/1/64 10/1/64 10/1/64 
f 65/1/63 10/1/64 10/1/64 
f 66/1/66 66/1/66 20/1/66 
f 66/1/66 66/1/67 20/1/66 
f 66/1/67 66/1/66 20/1/66 
f 66/1/66 18/1/66 20/1/66 
f 18/1/66 68/1/66 20/1/66 
f 68/1/66 68/1/67 20/1/66 
f 68/1/67 68/1/67 20/1/66 
f 68/1/67 68/1/66 20/1/66 
f 68/1/66 70/1/66 20/1/66 
f 70/1/66 70/1/66 20/1/66 
f 70/1/66 70/1/66 20/1/66 
f 70/1/66 70/1/67 20/1/66 
f 70/1/67 70/1/67 20/1/66 
f 70/1/67 1/1/68 20/1/66 
f 1/1/68 20/1/68 20/1/66 
f 20/1/68 20/1/66 20/1/66 
f 20/1/66 20/1/66 20/1/66 
f 20/1/66 20/1/66 20/1/66 
f 20/1/66 20/1/66 20/1/66 
f 20/1/66 66/1/66 20/1/66 
# 320 faces

